<?xml version="1.0" encoding="UTF-8" standalone="no"?>
<!DOCTYPE svg PUBLIC "-//W3C//DTD SVG 1.1//EN"
 "http://www.w3.org/Graphics/SVG/1.1/DTD/svg11.dtd">
<!-- Generated by graphviz version 2.36.0 (20140111.2315)
 -->
<!-- Title: controllers_diagram Pages: 1 -->
<svg width="1326pt" height="1156pt"
 viewBox="0.00 0.00 1326.00 1155.52" xmlns="http://www.w3.org/2000/svg" xmlns:xlink="http://www.w3.org/1999/xlink">
<g id="graph0" class="graph" transform="scale(1 1) rotate(0) translate(4 1151.52)">
<title>controllers_diagram</title>
<polygon fill="white" stroke="none" points="-4,4 -4,-1151.52 1322,-1151.52 1322,4 -4,4"/>
<!-- _diagram_info -->
<g id="node1" class="node"><title>_diagram_info</title>
<text text-anchor="start" x="1112" y="-431.6" font-family="Times,serif" font-size="13.00">Controllers diagram</text>
<text text-anchor="start" x="1112" y="-417.6" font-family="Times,serif" font-size="13.00">Date: May 29 2015 &#45; 00:55</text>
<text text-anchor="start" x="1112" y="-403.6" font-family="Times,serif" font-size="13.00">Migration version: 20150529061249</text>
<text text-anchor="start" x="1112" y="-389.6" font-family="Times,serif" font-size="13.00">Generated by RailRoady 1.3.0</text>
<text text-anchor="start" x="1112" y="-375.6" font-family="Times,serif" font-size="13.00">http://railroady.prestonlee.com</text>
</g>
<!-- MeetingsController -->
<g id="node2" class="node"><title>MeetingsController</title>
<path fill="none" stroke="black" d="M12,-587.838C12,-587.838 111,-587.838 111,-587.838 117,-587.838 123,-593.838 123,-599.838 123,-599.838 123,-788.838 123,-788.838 123,-794.838 117,-800.838 111,-800.838 111,-800.838 12,-800.838 12,-800.838 6,-800.838 0,-794.838 0,-788.838 0,-788.838 0,-599.838 0,-599.838 0,-593.838 6,-587.838 12,-587.838"/>
<text text-anchor="middle" x="61.5" y="-785.638" font-family="Times,serif" font-size="14.00">MeetingsController</text>
<polyline fill="none" stroke="black" points="0,-777.838 123,-777.838 "/>
<text text-anchor="start" x="8" y="-762.638" font-family="Times,serif" font-size="14.00">create</text>
<text text-anchor="start" x="8" y="-747.638" font-family="Times,serif" font-size="14.00">destroy</text>
<text text-anchor="start" x="8" y="-732.638" font-family="Times,serif" font-size="14.00">edit</text>
<text text-anchor="start" x="8" y="-717.638" font-family="Times,serif" font-size="14.00">index</text>
<text text-anchor="start" x="8" y="-702.638" font-family="Times,serif" font-size="14.00">new</text>
<text text-anchor="start" x="8" y="-687.638" font-family="Times,serif" font-size="14.00">show</text>
<text text-anchor="start" x="8" y="-672.638" font-family="Times,serif" font-size="14.00">update</text>
<polyline fill="none" stroke="black" points="0,-664.838 123,-664.838 "/>
<polyline fill="none" stroke="black" points="0,-640.838 123,-640.838 "/>
<text text-anchor="start" x="8" y="-625.638" font-family="Times,serif" font-size="14.00">_layout</text>
<text text-anchor="start" x="8" y="-610.638" font-family="Times,serif" font-size="14.00">meeting_params</text>
<text text-anchor="start" x="8" y="-595.638" font-family="Times,serif" font-size="14.00">set_meeting</text>
</g>
<!-- LocationsController -->
<g id="node3" class="node"><title>LocationsController</title>
<path fill="none" stroke="black" d="M684.014,-294.992C684.014,-294.992 785.014,-294.992 785.014,-294.992 791.014,-294.992 797.014,-300.992 797.014,-306.992 797.014,-306.992 797.014,-495.992 797.014,-495.992 797.014,-501.992 791.014,-507.992 785.014,-507.992 785.014,-507.992 684.014,-507.992 684.014,-507.992 678.014,-507.992 672.014,-501.992 672.014,-495.992 672.014,-495.992 672.014,-306.992 672.014,-306.992 672.014,-300.992 678.014,-294.992 684.014,-294.992"/>
<text text-anchor="middle" x="734.514" y="-492.792" font-family="Times,serif" font-size="14.00">LocationsController</text>
<polyline fill="none" stroke="black" points="672.014,-484.992 797.014,-484.992 "/>
<text text-anchor="start" x="680.014" y="-469.792" font-family="Times,serif" font-size="14.00">create</text>
<text text-anchor="start" x="680.014" y="-454.792" font-family="Times,serif" font-size="14.00">destroy</text>
<text text-anchor="start" x="680.014" y="-439.792" font-family="Times,serif" font-size="14.00">edit</text>
<text text-anchor="start" x="680.014" y="-424.792" font-family="Times,serif" font-size="14.00">index</text>
<text text-anchor="start" x="680.014" y="-409.792" font-family="Times,serif" font-size="14.00">new</text>
<text text-anchor="start" x="680.014" y="-394.792" font-family="Times,serif" font-size="14.00">show</text>
<text text-anchor="start" x="680.014" y="-379.792" font-family="Times,serif" font-size="14.00">update</text>
<polyline fill="none" stroke="black" points="672.014,-371.992 797.014,-371.992 "/>
<polyline fill="none" stroke="black" points="672.014,-347.992 797.014,-347.992 "/>
<text text-anchor="start" x="680.014" y="-332.792" font-family="Times,serif" font-size="14.00">_layout</text>
<text text-anchor="start" x="680.014" y="-317.792" font-family="Times,serif" font-size="14.00">location_params</text>
<text text-anchor="start" x="680.014" y="-302.792" font-family="Times,serif" font-size="14.00">set_location</text>
</g>
<!-- WelcomeController -->
<g id="node4" class="node"><title>WelcomeController</title>
<path fill="none" stroke="black" d="M16.2697,-41.7564C16.2697,-41.7564 117.27,-41.7564 117.27,-41.7564 123.27,-41.7564 129.27,-47.7564 129.27,-53.7564 129.27,-53.7564 129.27,-122.756 129.27,-122.756 129.27,-128.756 123.27,-134.756 117.27,-134.756 117.27,-134.756 16.2697,-134.756 16.2697,-134.756 10.2697,-134.756 4.26973,-128.756 4.26973,-122.756 4.26973,-122.756 4.26973,-53.7564 4.26973,-53.7564 4.26973,-47.7564 10.2697,-41.7564 16.2697,-41.7564"/>
<text text-anchor="middle" x="66.7697" y="-119.556" font-family="Times,serif" font-size="14.00">WelcomeController</text>
<polyline fill="none" stroke="black" points="4.26973,-111.756 129.27,-111.756 "/>
<text text-anchor="start" x="12.2697" y="-96.5564" font-family="Times,serif" font-size="14.00">index</text>
<polyline fill="none" stroke="black" points="4.26973,-88.7564 129.27,-88.7564 "/>
<polyline fill="none" stroke="black" points="4.26973,-64.7564 129.27,-64.7564 "/>
<text text-anchor="start" x="12.2697" y="-49.5564" font-family="Times,serif" font-size="14.00">_layout</text>
</g>
<!-- ApplicationController -->
<g id="node5" class="node"><title>ApplicationController</title>
<path fill="none" stroke="black" d="M368.583,-402.649C368.583,-402.649 480.583,-402.649 480.583,-402.649 486.583,-402.649 492.583,-408.649 492.583,-414.649 492.583,-414.649 492.583,-484.649 492.583,-484.649 492.583,-490.649 486.583,-496.649 480.583,-496.649 480.583,-496.649 368.583,-496.649 368.583,-496.649 362.583,-496.649 356.583,-490.649 356.583,-484.649 356.583,-484.649 356.583,-414.649 356.583,-414.649 356.583,-408.649 362.583,-402.649 368.583,-402.649"/>
<text text-anchor="middle" x="424.583" y="-481.449" font-family="Times,serif" font-size="14.00">ApplicationController</text>
<polyline fill="none" stroke="black" points="356.583,-473.649 492.583,-473.649 "/>
<polyline fill="none" stroke="black" points="356.583,-449.649 492.583,-449.649 "/>
<polyline fill="none" stroke="black" points="356.583,-425.649 492.583,-425.649 "/>
<text text-anchor="start" x="364.583" y="-410.449" font-family="Times,serif" font-size="14.00">_layout</text>
</g>
<!-- ApplicationController&#45;&gt;MeetingsController -->
<g id="edge1" class="edge"><title>ApplicationController&#45;&gt;MeetingsController</title>
<path fill="none" stroke="black" d="M356.29,-495.673C289.219,-540.873 187.812,-609.213 123.135,-652.8"/>
</g>
<!-- ApplicationController&#45;&gt;LocationsController -->
<g id="edge2" class="edge"><title>ApplicationController&#45;&gt;LocationsController</title>
<path fill="none" stroke="black" d="M492.599,-439.08C546.056,-430.774 619.923,-419.297 671.929,-411.216"/>
</g>
<!-- ApplicationController&#45;&gt;WelcomeController -->
<g id="edge3" class="edge"><title>ApplicationController&#45;&gt;WelcomeController</title>
<path fill="none" stroke="black" d="M377.805,-402.403C309.041,-332.951 181.438,-204.071 112.992,-134.941"/>
</g>
<!-- StudentsController -->
<g id="node6" class="node"><title>StudentsController</title>
<path fill="none" stroke="black" d="M358.066,-627.939C358.066,-627.939 453.066,-627.939 453.066,-627.939 459.066,-627.939 465.066,-633.939 465.066,-639.939 465.066,-639.939 465.066,-828.939 465.066,-828.939 465.066,-834.939 459.066,-840.939 453.066,-840.939 453.066,-840.939 358.066,-840.939 358.066,-840.939 352.066,-840.939 346.066,-834.939 346.066,-828.939 346.066,-828.939 346.066,-639.939 346.066,-639.939 346.066,-633.939 352.066,-627.939 358.066,-627.939"/>
<text text-anchor="middle" x="405.566" y="-825.739" font-family="Times,serif" font-size="14.00">StudentsController</text>
<polyline fill="none" stroke="black" points="346.066,-817.939 465.066,-817.939 "/>
<text text-anchor="start" x="354.066" y="-802.739" font-family="Times,serif" font-size="14.00">create</text>
<text text-anchor="start" x="354.066" y="-787.739" font-family="Times,serif" font-size="14.00">destroy</text>
<text text-anchor="start" x="354.066" y="-772.739" font-family="Times,serif" font-size="14.00">edit</text>
<text text-anchor="start" x="354.066" y="-757.739" font-family="Times,serif" font-size="14.00">index</text>
<text text-anchor="start" x="354.066" y="-742.739" font-family="Times,serif" font-size="14.00">new</text>
<text text-anchor="start" x="354.066" y="-727.739" font-family="Times,serif" font-size="14.00">show</text>
<text text-anchor="start" x="354.066" y="-712.739" font-family="Times,serif" font-size="14.00">update</text>
<polyline fill="none" stroke="black" points="346.066,-704.939 465.066,-704.939 "/>
<polyline fill="none" stroke="black" points="346.066,-680.939 465.066,-680.939 "/>
<text text-anchor="start" x="354.066" y="-665.739" font-family="Times,serif" font-size="14.00">_layout</text>
<text text-anchor="start" x="354.066" y="-650.739" font-family="Times,serif" font-size="14.00">set_student</text>
<text text-anchor="start" x="354.066" y="-635.739" font-family="Times,serif" font-size="14.00">student_params</text>
</g>
<!-- ApplicationController&#45;&gt;StudentsController -->
<g id="edge4" class="edge"><title>ApplicationController&#45;&gt;StudentsController</title>
<path fill="none" stroke="black" d="M421.443,-496.676C419.064,-532.302 415.701,-582.667 412.682,-627.878"/>
</g>
<!-- TeachersController -->
<g id="node7" class="node"><title>TeachersController</title>
<path fill="none" stroke="black" d="M16.1434,-922.671C16.1434,-922.671 113.143,-922.671 113.143,-922.671 119.143,-922.671 125.143,-928.671 125.143,-934.671 125.143,-934.671 125.143,-1123.67 125.143,-1123.67 125.143,-1129.67 119.143,-1135.67 113.143,-1135.67 113.143,-1135.67 16.1434,-1135.67 16.1434,-1135.67 10.1434,-1135.67 4.1434,-1129.67 4.1434,-1123.67 4.1434,-1123.67 4.1434,-934.671 4.1434,-934.671 4.1434,-928.671 10.1434,-922.671 16.1434,-922.671"/>
<text text-anchor="middle" x="64.6434" y="-1120.47" font-family="Times,serif" font-size="14.00">TeachersController</text>
<polyline fill="none" stroke="black" points="4.1434,-1112.67 125.143,-1112.67 "/>
<text text-anchor="start" x="12.1434" y="-1097.47" font-family="Times,serif" font-size="14.00">create</text>
<text text-anchor="start" x="12.1434" y="-1082.47" font-family="Times,serif" font-size="14.00">destroy</text>
<text text-anchor="start" x="12.1434" y="-1067.47" font-family="Times,serif" font-size="14.00">edit</text>
<text text-anchor="start" x="12.1434" y="-1052.47" font-family="Times,serif" font-size="14.00">index</text>
<text text-anchor="start" x="12.1434" y="-1037.47" font-family="Times,serif" font-size="14.00">new</text>
<text text-anchor="start" x="12.1434" y="-1022.47" font-family="Times,serif" font-size="14.00">show</text>
<text text-anchor="start" x="12.1434" y="-1007.47" font-family="Times,serif" font-size="14.00">update</text>
<polyline fill="none" stroke="black" points="4.1434,-999.671 125.143,-999.671 "/>
<polyline fill="none" stroke="black" points="4.1434,-975.671 125.143,-975.671 "/>
<text text-anchor="start" x="12.1434" y="-960.471" font-family="Times,serif" font-size="14.00">_layout</text>
<text text-anchor="start" x="12.1434" y="-945.471" font-family="Times,serif" font-size="14.00">set_teacher</text>
<text text-anchor="start" x="12.1434" y="-930.471" font-family="Times,serif" font-size="14.00">teacher_params</text>
</g>
<!-- ApplicationController&#45;&gt;TeachersController -->
<g id="edge5" class="edge"><title>ApplicationController&#45;&gt;TeachersController</title>
<path fill="none" stroke="black" d="M395.127,-497.073C336.321,-591.755 203.315,-805.901 125.147,-931.757"/>
</g>
<!-- SchedulesController -->
<g id="node8" class="node"><title>SchedulesController</title>
<path fill="none" stroke="black" d="M22.2995,-300.475C22.2995,-300.475 125.3,-300.475 125.3,-300.475 131.3,-300.475 137.3,-306.475 137.3,-312.475 137.3,-312.475 137.3,-501.475 137.3,-501.475 137.3,-507.475 131.3,-513.475 125.3,-513.475 125.3,-513.475 22.2995,-513.475 22.2995,-513.475 16.2995,-513.475 10.2995,-507.475 10.2995,-501.475 10.2995,-501.475 10.2995,-312.475 10.2995,-312.475 10.2995,-306.475 16.2995,-300.475 22.2995,-300.475"/>
<text text-anchor="middle" x="73.7995" y="-498.275" font-family="Times,serif" font-size="14.00">SchedulesController</text>
<polyline fill="none" stroke="black" points="10.2995,-490.475 137.3,-490.475 "/>
<text text-anchor="start" x="18.2995" y="-475.275" font-family="Times,serif" font-size="14.00">create</text>
<text text-anchor="start" x="18.2995" y="-460.275" font-family="Times,serif" font-size="14.00">destroy</text>
<text text-anchor="start" x="18.2995" y="-445.275" font-family="Times,serif" font-size="14.00">edit</text>
<text text-anchor="start" x="18.2995" y="-430.275" font-family="Times,serif" font-size="14.00">index</text>
<text text-anchor="start" x="18.2995" y="-415.275" font-family="Times,serif" font-size="14.00">new</text>
<text text-anchor="start" x="18.2995" y="-400.275" font-family="Times,serif" font-size="14.00">show</text>
<text text-anchor="start" x="18.2995" y="-385.275" font-family="Times,serif" font-size="14.00">update</text>
<polyline fill="none" stroke="black" points="10.2995,-377.475 137.3,-377.475 "/>
<polyline fill="none" stroke="black" points="10.2995,-353.475 137.3,-353.475 "/>
<text text-anchor="start" x="18.2995" y="-338.275" font-family="Times,serif" font-size="14.00">_layout</text>
<text text-anchor="start" x="18.2995" y="-323.275" font-family="Times,serif" font-size="14.00">schedule_params</text>
<text text-anchor="start" x="18.2995" y="-308.275" font-family="Times,serif" font-size="14.00">set_schedule</text>
</g>
<!-- ApplicationController&#45;&gt;SchedulesController -->
<g id="edge6" class="edge"><title>ApplicationController&#45;&gt;SchedulesController</title>
<path fill="none" stroke="black" d="M356.532,-441.37C293.175,-433.662 199.453,-422.261 137.526,-414.727"/>
</g>
<!-- AssignaturesController -->
<g id="node9" class="node"><title>AssignaturesController</title>
<path fill="none" stroke="black" d="M350.662,-4.91693C350.662,-4.91693 468.662,-4.91693 468.662,-4.91693 474.662,-4.91693 480.662,-10.9169 480.662,-16.9169 480.662,-16.9169 480.662,-205.917 480.662,-205.917 480.662,-211.917 474.662,-217.917 468.662,-217.917 468.662,-217.917 350.662,-217.917 350.662,-217.917 344.662,-217.917 338.662,-211.917 338.662,-205.917 338.662,-205.917 338.662,-16.9169 338.662,-16.9169 338.662,-10.9169 344.662,-4.91693 350.662,-4.91693"/>
<text text-anchor="middle" x="409.662" y="-202.717" font-family="Times,serif" font-size="14.00">AssignaturesController</text>
<polyline fill="none" stroke="black" points="338.662,-194.917 480.662,-194.917 "/>
<text text-anchor="start" x="346.662" y="-179.717" font-family="Times,serif" font-size="14.00">create</text>
<text text-anchor="start" x="346.662" y="-164.717" font-family="Times,serif" font-size="14.00">destroy</text>
<text text-anchor="start" x="346.662" y="-149.717" font-family="Times,serif" font-size="14.00">edit</text>
<text text-anchor="start" x="346.662" y="-134.717" font-family="Times,serif" font-size="14.00">index</text>
<text text-anchor="start" x="346.662" y="-119.717" font-family="Times,serif" font-size="14.00">new</text>
<text text-anchor="start" x="346.662" y="-104.717" font-family="Times,serif" font-size="14.00">show</text>
<text text-anchor="start" x="346.662" y="-89.7169" font-family="Times,serif" font-size="14.00">update</text>
<polyline fill="none" stroke="black" points="338.662,-81.9169 480.662,-81.9169 "/>
<polyline fill="none" stroke="black" points="338.662,-57.9169 480.662,-57.9169 "/>
<text text-anchor="start" x="346.662" y="-42.7169" font-family="Times,serif" font-size="14.00">_layout</text>
<text text-anchor="start" x="346.662" y="-27.7169" font-family="Times,serif" font-size="14.00">assignature_params</text>
<text text-anchor="start" x="346.662" y="-12.7169" font-family="Times,serif" font-size="14.00">set_assignature</text>
</g>
<!-- ApplicationController&#45;&gt;AssignaturesController -->
<g id="edge7" class="edge"><title>ApplicationController&#45;&gt;AssignaturesController</title>
<path fill="none" stroke="black" d="M422.508,-402.619C420.414,-355.152 417.108,-280.21 414.374,-218.24"/>
</g>
<!-- DeviseController -->
<g id="node16" class="node"><title>DeviseController</title>
<path fill="none" stroke="black" d="M639.436,-518.807C639.436,-518.807 806.436,-518.807 806.436,-518.807 812.436,-518.807 818.436,-524.807 818.436,-530.807 818.436,-530.807 818.436,-883.807 818.436,-883.807 818.436,-889.807 812.436,-895.807 806.436,-895.807 806.436,-895.807 639.436,-895.807 639.436,-895.807 633.436,-895.807 627.436,-889.807 627.436,-883.807 627.436,-883.807 627.436,-530.807 627.436,-530.807 627.436,-524.807 633.436,-518.807 639.436,-518.807"/>
<text text-anchor="middle" x="722.936" y="-880.607" font-family="Times,serif" font-size="14.00">DeviseController</text>
<polyline fill="none" stroke="black" points="627.436,-872.807 818.436,-872.807 "/>
<text text-anchor="start" x="635.436" y="-857.607" font-family="Times,serif" font-size="14.00">_prefixes</text>
<polyline fill="none" stroke="black" points="627.436,-849.807 818.436,-849.807 "/>
<text text-anchor="start" x="635.436" y="-834.607" font-family="Times,serif" font-size="14.00">assert_is_devise_resource!</text>
<text text-anchor="start" x="635.436" y="-819.607" font-family="Times,serif" font-size="14.00">clean_up_passwords</text>
<text text-anchor="start" x="635.436" y="-804.607" font-family="Times,serif" font-size="14.00">devise_i18n_options</text>
<text text-anchor="start" x="635.436" y="-789.607" font-family="Times,serif" font-size="14.00">devise_mapping</text>
<text text-anchor="start" x="635.436" y="-774.607" font-family="Times,serif" font-size="14.00">find_message</text>
<text text-anchor="start" x="635.436" y="-759.607" font-family="Times,serif" font-size="14.00">navigational_formats</text>
<text text-anchor="start" x="635.436" y="-744.607" font-family="Times,serif" font-size="14.00">require_no_authentication</text>
<text text-anchor="start" x="635.436" y="-729.607" font-family="Times,serif" font-size="14.00">resource</text>
<text text-anchor="start" x="635.436" y="-714.607" font-family="Times,serif" font-size="14.00">resource=</text>
<text text-anchor="start" x="635.436" y="-699.607" font-family="Times,serif" font-size="14.00">resource_class</text>
<text text-anchor="start" x="635.436" y="-684.607" font-family="Times,serif" font-size="14.00">resource_name</text>
<text text-anchor="start" x="635.436" y="-669.607" font-family="Times,serif" font-size="14.00">resource_params</text>
<text text-anchor="start" x="635.436" y="-654.607" font-family="Times,serif" font-size="14.00">respond_with_navigational</text>
<text text-anchor="start" x="635.436" y="-639.607" font-family="Times,serif" font-size="14.00">scope_name</text>
<text text-anchor="start" x="635.436" y="-624.607" font-family="Times,serif" font-size="14.00">set_flash_message</text>
<text text-anchor="start" x="635.436" y="-609.607" font-family="Times,serif" font-size="14.00">set_minimum_password_length</text>
<text text-anchor="start" x="635.436" y="-594.607" font-family="Times,serif" font-size="14.00">signed_in_resource</text>
<text text-anchor="start" x="635.436" y="-579.607" font-family="Times,serif" font-size="14.00">successfully_sent?</text>
<text text-anchor="start" x="635.436" y="-564.607" font-family="Times,serif" font-size="14.00">translation_scope</text>
<text text-anchor="start" x="635.436" y="-549.607" font-family="Times,serif" font-size="14.00">unknown_action!</text>
<polyline fill="none" stroke="black" points="627.436,-541.807 818.436,-541.807 "/>
<text text-anchor="start" x="635.436" y="-526.607" font-family="Times,serif" font-size="14.00">_layout</text>
</g>
<!-- ApplicationController&#45;&gt;DeviseController -->
<g id="edge14" class="edge"><title>ApplicationController&#45;&gt;DeviseController</title>
<path fill="none" stroke="black" d="M479.306,-496.907C520.605,-532.574 578.313,-582.41 627.198,-624.628"/>
</g>
<!-- Devise::UnlocksController -->
<g id="node10" class="node"><title>Devise::UnlocksController</title>
<path fill="none" stroke="black" d="M599.41,-0.5C599.41,-0.5 831.41,-0.5 831.41,-0.5 837.41,-0.5 843.41,-6.5 843.41,-12.5 843.41,-12.5 843.41,-140.5 843.41,-140.5 843.41,-146.5 837.41,-152.5 831.41,-152.5 831.41,-152.5 599.41,-152.5 599.41,-152.5 593.41,-152.5 587.41,-146.5 587.41,-140.5 587.41,-140.5 587.41,-12.5 587.41,-12.5 587.41,-6.5 593.41,-0.5 599.41,-0.5"/>
<text text-anchor="middle" x="715.41" y="-137.3" font-family="Times,serif" font-size="14.00">Devise::UnlocksController</text>
<polyline fill="none" stroke="black" points="587.41,-129.5 843.41,-129.5 "/>
<text text-anchor="start" x="595.41" y="-114.3" font-family="Times,serif" font-size="14.00">create</text>
<text text-anchor="start" x="595.41" y="-99.3" font-family="Times,serif" font-size="14.00">new</text>
<text text-anchor="start" x="595.41" y="-84.3" font-family="Times,serif" font-size="14.00">show</text>
<polyline fill="none" stroke="black" points="587.41,-76.5 843.41,-76.5 "/>
<text text-anchor="start" x="595.41" y="-61.3" font-family="Times,serif" font-size="14.00">after_sending_unlock_instructions_path_for</text>
<text text-anchor="start" x="595.41" y="-46.3" font-family="Times,serif" font-size="14.00">after_unlock_path_for</text>
<text text-anchor="start" x="595.41" y="-31.3" font-family="Times,serif" font-size="14.00">translation_scope</text>
<polyline fill="none" stroke="black" points="587.41,-23.5 843.41,-23.5 "/>
<text text-anchor="start" x="595.41" y="-8.3" font-family="Times,serif" font-size="14.00">_layout</text>
</g>
<!-- Devise::ConfirmationsController -->
<g id="node11" class="node"><title>Devise::ConfirmationsController</title>
<path fill="none" stroke="black" d="M914.688,-491.559C914.688,-491.559 1190.69,-491.559 1190.69,-491.559 1196.69,-491.559 1202.69,-497.559 1202.69,-503.559 1202.69,-503.559 1202.69,-631.559 1202.69,-631.559 1202.69,-637.559 1196.69,-643.559 1190.69,-643.559 1190.69,-643.559 914.688,-643.559 914.688,-643.559 908.688,-643.559 902.688,-637.559 902.688,-631.559 902.688,-631.559 902.688,-503.559 902.688,-503.559 902.688,-497.559 908.688,-491.559 914.688,-491.559"/>
<text text-anchor="middle" x="1052.69" y="-628.359" font-family="Times,serif" font-size="14.00">Devise::ConfirmationsController</text>
<polyline fill="none" stroke="black" points="902.688,-620.559 1202.69,-620.559 "/>
<text text-anchor="start" x="910.688" y="-605.359" font-family="Times,serif" font-size="14.00">create</text>
<text text-anchor="start" x="910.688" y="-590.359" font-family="Times,serif" font-size="14.00">new</text>
<text text-anchor="start" x="910.688" y="-575.359" font-family="Times,serif" font-size="14.00">show</text>
<polyline fill="none" stroke="black" points="902.688,-567.559 1202.69,-567.559 "/>
<text text-anchor="start" x="910.688" y="-552.359" font-family="Times,serif" font-size="14.00">after_confirmation_path_for</text>
<text text-anchor="start" x="910.688" y="-537.359" font-family="Times,serif" font-size="14.00">after_resending_confirmation_instructions_path_for</text>
<text text-anchor="start" x="910.688" y="-522.359" font-family="Times,serif" font-size="14.00">translation_scope</text>
<polyline fill="none" stroke="black" points="902.688,-514.559 1202.69,-514.559 "/>
<text text-anchor="start" x="910.688" y="-499.359" font-family="Times,serif" font-size="14.00">_layout</text>
</g>
<!-- Devise::OmniauthCallbacksController -->
<g id="node12" class="node"><title>Devise::OmniauthCallbacksController</title>
<path fill="none" stroke="black" d="M950.49,-67.1706C950.49,-67.1706 1151.49,-67.1706 1151.49,-67.1706 1157.49,-67.1706 1163.49,-73.1706 1163.49,-79.1706 1163.49,-79.1706 1163.49,-207.171 1163.49,-207.171 1163.49,-213.171 1157.49,-219.171 1151.49,-219.171 1151.49,-219.171 950.49,-219.171 950.49,-219.171 944.49,-219.171 938.49,-213.171 938.49,-207.171 938.49,-207.171 938.49,-79.1706 938.49,-79.1706 938.49,-73.1706 944.49,-67.1706 950.49,-67.1706"/>
<text text-anchor="middle" x="1050.99" y="-203.971" font-family="Times,serif" font-size="14.00">Devise::OmniauthCallbacksController</text>
<polyline fill="none" stroke="black" points="938.49,-196.171 1163.49,-196.171 "/>
<text text-anchor="start" x="946.49" y="-180.971" font-family="Times,serif" font-size="14.00">failure</text>
<text text-anchor="start" x="946.49" y="-165.971" font-family="Times,serif" font-size="14.00">passthru</text>
<polyline fill="none" stroke="black" points="938.49,-158.171 1163.49,-158.171 "/>
<text text-anchor="start" x="946.49" y="-142.971" font-family="Times,serif" font-size="14.00">after_omniauth_failure_path_for</text>
<text text-anchor="start" x="946.49" y="-127.971" font-family="Times,serif" font-size="14.00">failed_strategy</text>
<text text-anchor="start" x="946.49" y="-112.971" font-family="Times,serif" font-size="14.00">failure_message</text>
<text text-anchor="start" x="946.49" y="-97.9706" font-family="Times,serif" font-size="14.00">translation_scope</text>
<polyline fill="none" stroke="black" points="938.49,-90.1706 1163.49,-90.1706 "/>
<text text-anchor="start" x="946.49" y="-74.9706" font-family="Times,serif" font-size="14.00">_layout</text>
</g>
<!-- Devise::PasswordsController -->
<g id="node13" class="node"><title>Devise::PasswordsController</title>
<path fill="none" stroke="black" d="M270.479,-947.812C270.479,-947.812 548.479,-947.812 548.479,-947.812 554.479,-947.812 560.479,-953.812 560.479,-959.812 560.479,-959.812 560.479,-1132.81 560.479,-1132.81 560.479,-1138.81 554.479,-1144.81 548.479,-1144.81 548.479,-1144.81 270.479,-1144.81 270.479,-1144.81 264.479,-1144.81 258.479,-1138.81 258.479,-1132.81 258.479,-1132.81 258.479,-959.812 258.479,-959.812 258.479,-953.812 264.479,-947.812 270.479,-947.812"/>
<text text-anchor="middle" x="409.479" y="-1129.61" font-family="Times,serif" font-size="14.00">Devise::PasswordsController</text>
<polyline fill="none" stroke="black" points="258.479,-1121.81 560.479,-1121.81 "/>
<text text-anchor="start" x="266.479" y="-1106.61" font-family="Times,serif" font-size="14.00">create</text>
<text text-anchor="start" x="266.479" y="-1091.61" font-family="Times,serif" font-size="14.00">edit</text>
<text text-anchor="start" x="266.479" y="-1076.61" font-family="Times,serif" font-size="14.00">new</text>
<text text-anchor="start" x="266.479" y="-1061.61" font-family="Times,serif" font-size="14.00">update</text>
<polyline fill="none" stroke="black" points="258.479,-1053.81 560.479,-1053.81 "/>
<text text-anchor="start" x="266.479" y="-1038.61" font-family="Times,serif" font-size="14.00">after_resetting_password_path_for</text>
<text text-anchor="start" x="266.479" y="-1023.61" font-family="Times,serif" font-size="14.00">after_sending_reset_password_instructions_path_for</text>
<text text-anchor="start" x="266.479" y="-1008.61" font-family="Times,serif" font-size="14.00">assert_reset_token_passed</text>
<text text-anchor="start" x="266.479" y="-993.612" font-family="Times,serif" font-size="14.00">translation_scope</text>
<text text-anchor="start" x="266.479" y="-978.612" font-family="Times,serif" font-size="14.00">unlockable?</text>
<polyline fill="none" stroke="black" points="258.479,-970.812 560.479,-970.812 "/>
<text text-anchor="start" x="266.479" y="-955.612" font-family="Times,serif" font-size="14.00">_layout</text>
</g>
<!-- Devise::RegistrationsController -->
<g id="node14" class="node"><title>Devise::RegistrationsController</title>
<path fill="none" stroke="black" d="M963.974,-829.168C963.974,-829.168 1132.97,-829.168 1132.97,-829.168 1138.97,-829.168 1144.97,-835.168 1144.97,-841.168 1144.97,-841.168 1144.97,-1134.17 1144.97,-1134.17 1144.97,-1140.17 1138.97,-1146.17 1132.97,-1146.17 1132.97,-1146.17 963.974,-1146.17 963.974,-1146.17 957.974,-1146.17 951.974,-1140.17 951.974,-1134.17 951.974,-1134.17 951.974,-841.168 951.974,-841.168 951.974,-835.168 957.974,-829.168 963.974,-829.168"/>
<text text-anchor="middle" x="1048.47" y="-1130.97" font-family="Times,serif" font-size="14.00">Devise::RegistrationsController</text>
<polyline fill="none" stroke="black" points="951.974,-1123.17 1144.97,-1123.17 "/>
<text text-anchor="start" x="959.974" y="-1107.97" font-family="Times,serif" font-size="14.00">cancel</text>
<text text-anchor="start" x="959.974" y="-1092.97" font-family="Times,serif" font-size="14.00">create</text>
<text text-anchor="start" x="959.974" y="-1077.97" font-family="Times,serif" font-size="14.00">destroy</text>
<text text-anchor="start" x="959.974" y="-1062.97" font-family="Times,serif" font-size="14.00">edit</text>
<text text-anchor="start" x="959.974" y="-1047.97" font-family="Times,serif" font-size="14.00">new</text>
<text text-anchor="start" x="959.974" y="-1032.97" font-family="Times,serif" font-size="14.00">update</text>
<polyline fill="none" stroke="black" points="951.974,-1025.17 1144.97,-1025.17 "/>
<text text-anchor="start" x="959.974" y="-1009.97" font-family="Times,serif" font-size="14.00">account_update_params</text>
<text text-anchor="start" x="959.974" y="-994.968" font-family="Times,serif" font-size="14.00">after_inactive_sign_up_path_for</text>
<text text-anchor="start" x="959.974" y="-979.968" font-family="Times,serif" font-size="14.00">after_sign_up_path_for</text>
<text text-anchor="start" x="959.974" y="-964.968" font-family="Times,serif" font-size="14.00">after_update_path_for</text>
<text text-anchor="start" x="959.974" y="-949.968" font-family="Times,serif" font-size="14.00">authenticate_scope!</text>
<text text-anchor="start" x="959.974" y="-934.968" font-family="Times,serif" font-size="14.00">build_resource</text>
<text text-anchor="start" x="959.974" y="-919.968" font-family="Times,serif" font-size="14.00">sign_up</text>
<text text-anchor="start" x="959.974" y="-904.968" font-family="Times,serif" font-size="14.00">sign_up_params</text>
<text text-anchor="start" x="959.974" y="-889.968" font-family="Times,serif" font-size="14.00">translation_scope</text>
<text text-anchor="start" x="959.974" y="-874.968" font-family="Times,serif" font-size="14.00">update_needs_confirmation?</text>
<text text-anchor="start" x="959.974" y="-859.968" font-family="Times,serif" font-size="14.00">update_resource</text>
<polyline fill="none" stroke="black" points="951.974,-852.168 1144.97,-852.168 "/>
<text text-anchor="start" x="959.974" y="-836.968" font-family="Times,serif" font-size="14.00">_layout</text>
</g>
<!-- Devise::SessionsController -->
<g id="node15" class="node"><title>Devise::SessionsController</title>
<path fill="none" stroke="black" d="M646.85,-935.018C646.85,-935.018 786.85,-935.018 786.85,-935.018 792.85,-935.018 798.85,-941.018 798.85,-947.018 798.85,-947.018 798.85,-1135.02 798.85,-1135.02 798.85,-1141.02 792.85,-1147.02 786.85,-1147.02 786.85,-1147.02 646.85,-1147.02 646.85,-1147.02 640.85,-1147.02 634.85,-1141.02 634.85,-1135.02 634.85,-1135.02 634.85,-947.018 634.85,-947.018 634.85,-941.018 640.85,-935.018 646.85,-935.018"/>
<text text-anchor="middle" x="716.85" y="-1131.82" font-family="Times,serif" font-size="14.00">Devise::SessionsController</text>
<polyline fill="none" stroke="black" points="634.85,-1124.02 798.85,-1124.02 "/>
<text text-anchor="start" x="642.85" y="-1108.82" font-family="Times,serif" font-size="14.00">create</text>
<text text-anchor="start" x="642.85" y="-1093.82" font-family="Times,serif" font-size="14.00">destroy</text>
<text text-anchor="start" x="642.85" y="-1078.82" font-family="Times,serif" font-size="14.00">new</text>
<polyline fill="none" stroke="black" points="634.85,-1071.02 798.85,-1071.02 "/>
<text text-anchor="start" x="642.85" y="-1055.82" font-family="Times,serif" font-size="14.00">auth_options</text>
<text text-anchor="start" x="642.85" y="-1040.82" font-family="Times,serif" font-size="14.00">serialize_options</text>
<text text-anchor="start" x="642.85" y="-1025.82" font-family="Times,serif" font-size="14.00">sign_in_params</text>
<text text-anchor="start" x="642.85" y="-1010.82" font-family="Times,serif" font-size="14.00">translation_scope</text>
<polyline fill="none" stroke="black" points="634.85,-1003.02 798.85,-1003.02 "/>
<text text-anchor="start" x="642.85" y="-987.818" font-family="Times,serif" font-size="14.00">_layout</text>
<text text-anchor="start" x="642.85" y="-972.818" font-family="Times,serif" font-size="14.00">all_signed_out?</text>
<text text-anchor="start" x="642.85" y="-957.818" font-family="Times,serif" font-size="14.00">respond_to_on_destroy</text>
<text text-anchor="start" x="642.85" y="-942.818" font-family="Times,serif" font-size="14.00">verify_signed_out_user</text>
</g>
<!-- DeviseController&#45;&gt;Devise::UnlocksController -->
<g id="edge8" class="edge"><title>DeviseController&#45;&gt;Devise::UnlocksController</title>
<path fill="none" stroke="black" d="M669.876,-518.577C669.501,-516.104 669.146,-513.642 668.814,-511.192 655.726,-414.563 658.442,-388.749 668.814,-291.792 673.818,-245.02 684.77,-193.493 694.799,-152.577"/>
</g>
<!-- DeviseController&#45;&gt;Devise::ConfirmationsController -->
<g id="edge9" class="edge"><title>DeviseController&#45;&gt;Devise::ConfirmationsController</title>
<path fill="none" stroke="black" d="M818.757,-666.698C844.999,-655.577 874.089,-643.249 902.586,-631.172"/>
</g>
<!-- DeviseController&#45;&gt;Devise::OmniauthCallbacksController -->
<g id="edge10" class="edge"><title>DeviseController&#45;&gt;Devise::OmniauthCallbacksController</title>
<path fill="none" stroke="black" d="M818.484,-542.998C880.62,-436.147 958.734,-301.818 1006.75,-219.256"/>
</g>
<!-- DeviseController&#45;&gt;Devise::PasswordsController -->
<g id="edge11" class="edge"><title>DeviseController&#45;&gt;Devise::PasswordsController</title>
<path fill="none" stroke="black" d="M627.186,-810.862C586.946,-854.381 540.353,-904.772 500.621,-947.742"/>
</g>
<!-- DeviseController&#45;&gt;Devise::RegistrationsController -->
<g id="edge12" class="edge"><title>DeviseController&#45;&gt;Devise::RegistrationsController</title>
<path fill="none" stroke="black" d="M818.848,-789.908C860.765,-826.008 909.843,-868.275 951.842,-904.446"/>
</g>
<!-- DeviseController&#45;&gt;Devise::SessionsController -->
<g id="edge13" class="edge"><title>DeviseController&#45;&gt;Devise::SessionsController</title>
<path fill="none" stroke="black" d="M719.493,-896.103C719.251,-909.376 719.012,-922.46 718.783,-935.012"/>
</g>
</g>
</svg>
