<?xml version="1.0" encoding="UTF-8" standalone="no"?>
<!DOCTYPE svg PUBLIC "-//W3C//DTD SVG 1.1//EN"
 "http://www.w3.org/Graphics/SVG/1.1/DTD/svg11.dtd">
<!-- Generated by graphviz version 2.36.0 (20140111.2315)
 -->
<!-- Title: models_diagram Pages: 1 -->
<svg width="612pt" height="374pt"
 viewBox="0.00 0.00 612.46 374.00" xmlns="http://www.w3.org/2000/svg" xmlns:xlink="http://www.w3.org/1999/xlink">
<g id="graph0" class="graph" transform="scale(1 1) rotate(0) translate(4 370)">
<title>models_diagram</title>
<polygon fill="white" stroke="none" points="-4,4 -4,-370 608.464,-370 608.464,4 -4,4"/>
<!-- _diagram_info -->
<g id="node1" class="node"><title>_diagram_info</title>
<text text-anchor="start" x="8" y="-351.6" font-family="Times,serif" font-size="13.00">Models diagram</text>
<text text-anchor="start" x="8" y="-337.6" font-family="Times,serif" font-size="13.00">Date: May 29 2015 &#45; 00:55</text>
<text text-anchor="start" x="8" y="-323.6" font-family="Times,serif" font-size="13.00">Migration version: 20150529061249</text>
<text text-anchor="start" x="8" y="-309.6" font-family="Times,serif" font-size="13.00">Generated by RailRoady 1.3.0</text>
<text text-anchor="start" x="8" y="-295.6" font-family="Times,serif" font-size="13.00">http://railroady.prestonlee.com</text>
</g>
<!-- Schedule -->
<g id="node2" class="node"><title>Schedule</title>
<ellipse fill="none" stroke="black" cx="144" cy="-162" rx="42.3456" ry="18"/>
<text text-anchor="middle" x="144" y="-158.3" font-family="Times,serif" font-size="14.00">Schedule</text>
</g>
<!-- Student -->
<g id="node7" class="node"><title>Student</title>
<ellipse fill="none" stroke="black" cx="210" cy="-90" rx="37.5442" ry="18"/>
<text text-anchor="middle" x="210" y="-86.3" font-family="Times,serif" font-size="14.00">Student</text>
</g>
<!-- Schedule&#45;&gt;Student -->
<g id="edge2" class="edge"><title>Schedule&#45;&gt;Student</title>
<path fill="none" stroke="#726bf3" d="M165.956,-137.713C172.981,-130.263 180.76,-122.012 187.802,-114.543"/>
<polygon fill="#726bf3" stroke="#726bf3" points="165.837,-137.84 155.702,-142.029 162.407,-141.478 158.976,-145.116 158.976,-145.116 158.976,-145.116 162.407,-141.478 162.251,-148.203 165.837,-137.84 165.837,-137.84"/>
<polygon fill="#726bf3" stroke="#726bf3" points="188.223,-114.097 198.357,-109.908 191.653,-110.459 195.083,-106.821 195.083,-106.821 195.083,-106.821 191.653,-110.459 191.809,-103.734 188.223,-114.097 188.223,-114.097"/>
</g>
<!-- ScheduleStudent -->
<g id="node9" class="node"><title>ScheduleStudent</title>
<ellipse fill="none" stroke="black" cx="177" cy="-18" rx="69.3156" ry="18"/>
<text text-anchor="middle" x="177" y="-14.3" font-family="Times,serif" font-size="14.00">ScheduleStudent</text>
</g>
<!-- Schedule&#45;&gt;ScheduleStudent -->
<g id="edge1" class="edge"><title>Schedule&#45;&gt;ScheduleStudent</title>
<path fill="none" stroke="#171687" d="M149.066,-135.692C152.722,-117.841 157.894,-93.395 163,-72 165.02,-63.5385 167.382,-54.3626 169.584,-46.0611"/>
<ellipse fill="none" stroke="#171687" cx="148.198" cy="-139.964" rx="4.00001" ry="4.00001"/>
<polygon fill="#171687" stroke="#171687" points="169.657,-45.7908 176.597,-37.3007 170.954,-40.962 172.251,-36.1332 172.251,-36.1332 172.251,-36.1332 170.954,-40.962 167.905,-34.9657 169.657,-45.7908 169.657,-45.7908"/>
</g>
<!-- Teacher -->
<g id="node3" class="node"><title>Teacher</title>
<ellipse fill="none" stroke="black" cx="144" cy="-234" rx="38.4949" ry="18"/>
<text text-anchor="middle" x="144" y="-230.3" font-family="Times,serif" font-size="14.00">Teacher</text>
</g>
<!-- Teacher&#45;&gt;Schedule -->
<g id="edge4" class="edge"><title>Teacher&#45;&gt;Schedule</title>
<path fill="none" stroke="#64dcde" d="M144,-207.64C144,-202.063 144,-196.132 144,-190.476"/>
<ellipse fill="none" stroke="#64dcde" cx="144" cy="-211.697" rx="4" ry="4"/>
<polygon fill="#64dcde" stroke="#64dcde" points="144,-190.104 148.5,-180.104 144,-185.104 144,-180.104 144,-180.104 144,-180.104 144,-185.104 139.5,-180.104 144,-190.104 144,-190.104"/>
</g>
<!-- Location -->
<g id="node4" class="node"><title>Location</title>
<ellipse fill="none" stroke="black" cx="243" cy="-234" rx="42.3701" ry="18"/>
<text text-anchor="middle" x="243" y="-230.3" font-family="Times,serif" font-size="14.00">Location</text>
</g>
<!-- Meeting -->
<g id="node5" class="node"><title>Meeting</title>
<ellipse fill="none" stroke="black" cx="313" cy="-162" rx="39.9464" ry="18"/>
<text text-anchor="middle" x="313" y="-158.3" font-family="Times,serif" font-size="14.00">Meeting</text>
</g>
<!-- Location&#45;&gt;Meeting -->
<g id="edge6" class="edge"><title>Location&#45;&gt;Meeting</title>
<path fill="none" stroke="#de8b09" d="M264.806,-211.194C272.83,-203.17 281.937,-194.063 290.058,-185.942"/>
<ellipse fill="none" stroke="#de8b09" cx="261.713" cy="-214.287" rx="4.00002" ry="4.00002"/>
<polygon fill="#de8b09" stroke="#de8b09" points="290.108,-185.892 300.361,-182.003 293.643,-182.357 297.179,-178.821 297.179,-178.821 297.179,-178.821 293.643,-182.357 293.997,-175.639 290.108,-185.892 290.108,-185.892"/>
</g>
<!-- Administrator -->
<g id="node6" class="node"><title>Administrator</title>
<ellipse fill="none" stroke="black" cx="401" cy="-234" rx="60.1672" ry="18"/>
<text text-anchor="middle" x="401" y="-230.3" font-family="Times,serif" font-size="14.00">Administrator</text>
</g>
<!-- Student&#45;&gt;ScheduleStudent -->
<g id="edge10" class="edge"><title>Student&#45;&gt;ScheduleStudent</title>
<path fill="none" stroke="#cb72d4" d="M198.472,-64.5475C195.588,-58.4284 192.479,-51.8347 189.548,-45.6163"/>
<ellipse fill="none" stroke="#cb72d4" cx="200.306" cy="-68.4368" rx="4.00002" ry="4.00002"/>
<polygon fill="#cb72d4" stroke="#cb72d4" points="189.408,-45.3206 189.214,-34.3564 187.276,-40.7979 185.144,-36.2753 185.144,-36.2753 185.144,-36.2753 187.276,-40.7979 181.074,-38.1942 189.408,-45.3206 189.408,-45.3206"/>
</g>
<!-- Assignature -->
<g id="node8" class="node"><title>Assignature</title>
<ellipse fill="none" stroke="black" cx="532" cy="-234" rx="52.4675" ry="18"/>
<text text-anchor="middle" x="532" y="-230.3" font-family="Times,serif" font-size="14.00">Assignature</text>
</g>
<!-- Assignature&#45;&gt;Meeting -->
<g id="edge12" class="edge"><title>Assignature&#45;&gt;Meeting</title>
<path fill="none" stroke="#23a8db" d="M487.171,-218.671C448.212,-206.218 392.232,-188.325 354.337,-176.213"/>
<ellipse fill="none" stroke="#23a8db" cx="491.04" cy="-219.908" rx="4.00001" ry="4.00001"/>
<polygon fill="#23a8db" stroke="#23a8db" points="354.161,-176.157 346.006,-168.826 349.399,-174.634 344.636,-173.112 344.636,-173.112 344.636,-173.112 349.399,-174.634 343.266,-177.398 354.161,-176.157 354.161,-176.157"/>
</g>
<!-- ActiveRecord::Base -->
<g id="node10" class="node"><title>ActiveRecord::Base</title>
<ellipse fill="none" stroke="black" cx="313" cy="-327" rx="81.3646" ry="18"/>
<text text-anchor="middle" x="313" y="-323.3" font-family="Times,serif" font-size="14.00">ActiveRecord::Base</text>
</g>
<!-- ActiveRecord::Base&#45;&gt;Schedule -->
<g id="edge3" class="edge"><title>ActiveRecord::Base&#45;&gt;Schedule</title>
<path fill="none" stroke="black" d="M278.8,-310.6C261.89,-303.274 241.067,-294.679 222,-288 167.034,-268.746 131.072,-298.497 96,-252 78.028,-228.174 105.092,-196.745 125.304,-178.317"/>
</g>
<!-- ActiveRecord::Base&#45;&gt;Teacher -->
<g id="edge5" class="edge"><title>ActiveRecord::Base&#45;&gt;Teacher</title>
<path fill="none" stroke="black" d="M283.562,-310.149C250.841,-292.53 198.609,-264.405 168.18,-248.02"/>
</g>
<!-- ActiveRecord::Base&#45;&gt;Location -->
<g id="edge7" class="edge"><title>ActiveRecord::Base&#45;&gt;Location</title>
<path fill="none" stroke="black" d="M299.834,-308.884C287.16,-292.408 268.128,-267.666 255.636,-251.427"/>
</g>
<!-- ActiveRecord::Base&#45;&gt;Meeting -->
<g id="edge8" class="edge"><title>ActiveRecord::Base&#45;&gt;Meeting</title>
<path fill="none" stroke="black" d="M313,-308.864C313,-277.64 313,-211.812 313,-180.397"/>
</g>
<!-- ActiveRecord::Base&#45;&gt;Administrator -->
<g id="edge9" class="edge"><title>ActiveRecord::Base&#45;&gt;Administrator</title>
<path fill="none" stroke="black" d="M329.141,-309.309C345.019,-292.89 369.119,-267.968 384.962,-251.585"/>
</g>
<!-- ActiveRecord::Base&#45;&gt;Student -->
<g id="edge11" class="edge"><title>ActiveRecord::Base&#45;&gt;Student</title>
<path fill="none" stroke="black" d="M391.62,-322.448C492.217,-314.833 647.364,-290.929 593,-216 511.671,-103.905 327.035,-90.4314 247.547,-90.0799"/>
</g>
<!-- ActiveRecord::Base&#45;&gt;Assignature -->
<g id="edge13" class="edge"><title>ActiveRecord::Base&#45;&gt;Assignature</title>
<path fill="none" stroke="black" d="M349.656,-310.769C391.665,-293.313 459.852,-264.979 499.865,-248.353"/>
</g>
</g>
</svg>
