<?xml version="1.0" encoding="UTF-8" standalone="no"?>
<!DOCTYPE svg PUBLIC "-//W3C//DTD SVG 1.1//EN"
 "http://www.w3.org/Graphics/SVG/1.1/DTD/svg11.dtd">
<!-- Generated by graphviz version 2.36.0 (20140111.2315)
 -->
<!-- Title: models_diagram Pages: 1 -->
<svg width="804pt" height="814pt"
 viewBox="0.00 0.00 804.25 814.00" xmlns="http://www.w3.org/2000/svg" xmlns:xlink="http://www.w3.org/1999/xlink">
<g id="graph0" class="graph" transform="scale(1 1) rotate(0) translate(4 810)">
<title>models_diagram</title>
<polygon fill="white" stroke="none" points="-4,4 -4,-810 800.254,-810 800.254,4 -4,4"/>
<!-- _diagram_info -->
<g id="node1" class="node"><title>_diagram_info</title>
<text text-anchor="start" x="55.7326" y="-791.6" font-family="Times,serif" font-size="13.00">Models diagram</text>
<text text-anchor="start" x="55.7326" y="-777.6" font-family="Times,serif" font-size="13.00">Date: May 29 2015 &#45; 00:55</text>
<text text-anchor="start" x="55.7326" y="-763.6" font-family="Times,serif" font-size="13.00">Migration version: 20150529061249</text>
<text text-anchor="start" x="55.7326" y="-749.6" font-family="Times,serif" font-size="13.00">Generated by RailRoady 1.3.0</text>
<text text-anchor="start" x="55.7326" y="-735.6" font-family="Times,serif" font-size="13.00">http://railroady.prestonlee.com</text>
</g>
<!-- Schedule -->
<g id="node2" class="node"><title>Schedule</title>
<path fill="none" stroke="black" d="M64.2326,-276C64.2326,-276 171.233,-276 171.233,-276 177.233,-276 183.233,-282 183.233,-288 183.233,-288 183.233,-370 183.233,-370 183.233,-376 177.233,-382 171.233,-382 171.233,-382 64.2326,-382 64.2326,-382 58.2326,-382 52.2326,-376 52.2326,-370 52.2326,-370 52.2326,-288 52.2326,-288 52.2326,-282 58.2326,-276 64.2326,-276"/>
<text text-anchor="middle" x="117.733" y="-366.8" font-family="Times,serif" font-size="14.00">Schedule</text>
<polyline fill="none" stroke="black" points="52.2326,-359 183.233,-359 "/>
<text text-anchor="start" x="60.2326" y="-343.8" font-family="Times,serif" font-size="14.00">id :integer</text>
<text text-anchor="start" x="60.2326" y="-328.8" font-family="Times,serif" font-size="14.00">meeting :date</text>
<text text-anchor="start" x="60.2326" y="-313.8" font-family="Times,serif" font-size="14.00">teacher_id :integer</text>
<text text-anchor="start" x="60.2326" y="-298.8" font-family="Times,serif" font-size="14.00">created_at :datetime</text>
<text text-anchor="start" x="60.2326" y="-283.8" font-family="Times,serif" font-size="14.00">updated_at :datetime</text>
</g>
<!-- Student -->
<g id="node7" class="node"><title>Student</title>
<path fill="none" stroke="black" d="M158.233,-72.5C158.233,-72.5 265.233,-72.5 265.233,-72.5 271.233,-72.5 277.233,-78.5 277.233,-84.5 277.233,-84.5 277.233,-211.5 277.233,-211.5 277.233,-217.5 271.233,-223.5 265.233,-223.5 265.233,-223.5 158.233,-223.5 158.233,-223.5 152.233,-223.5 146.233,-217.5 146.233,-211.5 146.233,-211.5 146.233,-84.5 146.233,-84.5 146.233,-78.5 152.233,-72.5 158.233,-72.5"/>
<text text-anchor="middle" x="211.733" y="-208.3" font-family="Times,serif" font-size="14.00">Student</text>
<polyline fill="none" stroke="black" points="146.233,-200.5 277.233,-200.5 "/>
<text text-anchor="start" x="154.233" y="-185.3" font-family="Times,serif" font-size="14.00">id :integer</text>
<text text-anchor="start" x="154.233" y="-170.3" font-family="Times,serif" font-size="14.00">first_name :string</text>
<text text-anchor="start" x="154.233" y="-155.3" font-family="Times,serif" font-size="14.00">last_name :string</text>
<text text-anchor="start" x="154.233" y="-140.3" font-family="Times,serif" font-size="14.00">last_name2 :string</text>
<text text-anchor="start" x="154.233" y="-125.3" font-family="Times,serif" font-size="14.00">email :string</text>
<text text-anchor="start" x="154.233" y="-110.3" font-family="Times,serif" font-size="14.00">phone :string</text>
<text text-anchor="start" x="154.233" y="-95.3" font-family="Times,serif" font-size="14.00">created_at :datetime</text>
<text text-anchor="start" x="154.233" y="-80.3" font-family="Times,serif" font-size="14.00">updated_at :datetime</text>
</g>
<!-- Schedule&#45;&gt;Student -->
<g id="edge2" class="edge"><title>Schedule&#45;&gt;Student</title>
<path fill="none" stroke="#250c32" d="M149.883,-266.777C155.64,-255.815 161.727,-244.223 167.749,-232.756"/>
<polygon fill="#250c32" stroke="#250c32" points="149.823,-266.891 141.19,-273.652 147.499,-271.318 145.174,-275.745 145.174,-275.745 145.174,-275.745 147.499,-271.318 149.158,-277.837 149.823,-266.891 149.823,-266.891"/>
<polygon fill="#250c32" stroke="#250c32" points="167.907,-232.455 176.54,-225.694 170.232,-228.029 172.556,-223.602 172.556,-223.602 172.556,-223.602 170.232,-228.029 168.572,-221.51 167.907,-232.455 167.907,-232.455"/>
</g>
<!-- ScheduleStudent -->
<g id="node9" class="node"><title>ScheduleStudent</title>
<ellipse fill="none" stroke="black" cx="164.733" cy="-18" rx="69.3156" ry="18"/>
<text text-anchor="middle" x="164.733" y="-14.3" font-family="Times,serif" font-size="14.00">ScheduleStudent</text>
</g>
<!-- Schedule&#45;&gt;ScheduleStudent -->
<g id="edge1" class="edge"><title>Schedule&#45;&gt;ScheduleStudent</title>
<path fill="none" stroke="#e8f822" d="M115.32,-267.681C114.826,-215.017 118.024,-137.049 136.733,-72 139.408,-62.699 143.834,-53.1612 148.387,-44.7861"/>
<ellipse fill="none" stroke="#e8f822" cx="115.376" cy="-271.911" rx="4" ry="4"/>
<polygon fill="#e8f822" stroke="#e8f822" points="148.512,-44.5694 157.396,-38.1411 151.003,-40.2342 153.494,-35.899 153.494,-35.899 153.494,-35.899 151.003,-40.2342 149.592,-33.6569 148.512,-44.5694 148.512,-44.5694"/>
</g>
<!-- Teacher -->
<g id="node3" class="node"><title>Teacher</title>
<path fill="none" stroke="black" d="M64.2326,-487.5C64.2326,-487.5 171.233,-487.5 171.233,-487.5 177.233,-487.5 183.233,-493.5 183.233,-499.5 183.233,-499.5 183.233,-626.5 183.233,-626.5 183.233,-632.5 177.233,-638.5 171.233,-638.5 171.233,-638.5 64.2326,-638.5 64.2326,-638.5 58.2326,-638.5 52.2326,-632.5 52.2326,-626.5 52.2326,-626.5 52.2326,-499.5 52.2326,-499.5 52.2326,-493.5 58.2326,-487.5 64.2326,-487.5"/>
<text text-anchor="middle" x="117.733" y="-623.3" font-family="Times,serif" font-size="14.00">Teacher</text>
<polyline fill="none" stroke="black" points="52.2326,-615.5 183.233,-615.5 "/>
<text text-anchor="start" x="60.2326" y="-600.3" font-family="Times,serif" font-size="14.00">id :integer</text>
<text text-anchor="start" x="60.2326" y="-585.3" font-family="Times,serif" font-size="14.00">first_name :string</text>
<text text-anchor="start" x="60.2326" y="-570.3" font-family="Times,serif" font-size="14.00">last_name :string</text>
<text text-anchor="start" x="60.2326" y="-555.3" font-family="Times,serif" font-size="14.00">last_name2 :string</text>
<text text-anchor="start" x="60.2326" y="-540.3" font-family="Times,serif" font-size="14.00">email :string</text>
<text text-anchor="start" x="60.2326" y="-525.3" font-family="Times,serif" font-size="14.00">phone :string</text>
<text text-anchor="start" x="60.2326" y="-510.3" font-family="Times,serif" font-size="14.00">created_at :datetime</text>
<text text-anchor="start" x="60.2326" y="-495.3" font-family="Times,serif" font-size="14.00">updated_at :datetime</text>
</g>
<!-- Teacher&#45;&gt;Schedule -->
<g id="edge4" class="edge"><title>Teacher&#45;&gt;Schedule</title>
<path fill="none" stroke="#b0b35d" d="M117.733,-479.181C117.733,-450.626 117.733,-419.142 117.733,-392.486"/>
<ellipse fill="none" stroke="#b0b35d" cx="117.733" cy="-483.317" rx="4" ry="4"/>
<polygon fill="#b0b35d" stroke="#b0b35d" points="117.733,-392.144 122.233,-382.144 117.733,-387.144 117.733,-382.144 117.733,-382.144 117.733,-382.144 117.733,-387.144 113.233,-382.144 117.733,-392.144 117.733,-392.144"/>
</g>
<!-- Location -->
<g id="node4" class="node"><title>Location</title>
<path fill="none" stroke="black" d="M213.233,-510C213.233,-510 320.233,-510 320.233,-510 326.233,-510 332.233,-516 332.233,-522 332.233,-522 332.233,-604 332.233,-604 332.233,-610 326.233,-616 320.233,-616 320.233,-616 213.233,-616 213.233,-616 207.233,-616 201.233,-610 201.233,-604 201.233,-604 201.233,-522 201.233,-522 201.233,-516 207.233,-510 213.233,-510"/>
<text text-anchor="middle" x="266.733" y="-600.8" font-family="Times,serif" font-size="14.00">Location</text>
<polyline fill="none" stroke="black" points="201.233,-593 332.233,-593 "/>
<text text-anchor="start" x="209.233" y="-577.8" font-family="Times,serif" font-size="14.00">id :integer</text>
<text text-anchor="start" x="209.233" y="-562.8" font-family="Times,serif" font-size="14.00">place :string</text>
<text text-anchor="start" x="209.233" y="-547.8" font-family="Times,serif" font-size="14.00">description :string</text>
<text text-anchor="start" x="209.233" y="-532.8" font-family="Times,serif" font-size="14.00">created_at :datetime</text>
<text text-anchor="start" x="209.233" y="-517.8" font-family="Times,serif" font-size="14.00">updated_at :datetime</text>
</g>
<!-- Meeting -->
<g id="node5" class="node"><title>Meeting</title>
<path fill="none" stroke="black" d="M302.733,-261C302.733,-261 418.733,-261 418.733,-261 424.733,-261 430.733,-267 430.733,-273 430.733,-273 430.733,-385 430.733,-385 430.733,-391 424.733,-397 418.733,-397 418.733,-397 302.733,-397 302.733,-397 296.733,-397 290.733,-391 290.733,-385 290.733,-385 290.733,-273 290.733,-273 290.733,-267 296.733,-261 302.733,-261"/>
<text text-anchor="middle" x="360.733" y="-381.8" font-family="Times,serif" font-size="14.00">Meeting</text>
<polyline fill="none" stroke="black" points="290.733,-374 430.733,-374 "/>
<text text-anchor="start" x="298.733" y="-358.8" font-family="Times,serif" font-size="14.00">id :integer</text>
<text text-anchor="start" x="298.733" y="-343.8" font-family="Times,serif" font-size="14.00">assignature_id :integer</text>
<text text-anchor="start" x="298.733" y="-328.8" font-family="Times,serif" font-size="14.00">comments :string</text>
<text text-anchor="start" x="298.733" y="-313.8" font-family="Times,serif" font-size="14.00">location_id :integer</text>
<text text-anchor="start" x="298.733" y="-298.8" font-family="Times,serif" font-size="14.00">schedule_id :integer</text>
<text text-anchor="start" x="298.733" y="-283.8" font-family="Times,serif" font-size="14.00">created_at :datetime</text>
<text text-anchor="start" x="298.733" y="-268.8" font-family="Times,serif" font-size="14.00">updated_at :datetime</text>
</g>
<!-- Location&#45;&gt;Meeting -->
<g id="edge6" class="edge"><title>Location&#45;&gt;Meeting</title>
<path fill="none" stroke="#096e9b" d="M290.894,-502.367C302.684,-473.269 317.006,-437.92 329.605,-406.826"/>
<ellipse fill="none" stroke="#096e9b" cx="289.33" cy="-506.227" rx="4.00001" ry="4.00001"/>
<polygon fill="#096e9b" stroke="#096e9b" points="329.699,-406.592 337.625,-399.014 331.577,-401.958 333.455,-397.324 333.455,-397.324 333.455,-397.324 331.577,-401.958 329.284,-395.634 329.699,-406.592 329.699,-406.592"/>
</g>
<!-- Administrator -->
<g id="node6" class="node"><title>Administrator</title>
<path fill="none" stroke="black" d="M400.733,-435C400.733,-435 576.733,-435 576.733,-435 582.733,-435 588.733,-441 588.733,-447 588.733,-447 588.733,-679 588.733,-679 588.733,-685 582.733,-691 576.733,-691 576.733,-691 400.733,-691 400.733,-691 394.733,-691 388.733,-685 388.733,-679 388.733,-679 388.733,-447 388.733,-447 388.733,-441 394.733,-435 400.733,-435"/>
<text text-anchor="middle" x="488.733" y="-675.8" font-family="Times,serif" font-size="14.00">Administrator</text>
<polyline fill="none" stroke="black" points="388.733,-668 588.733,-668 "/>
<text text-anchor="start" x="396.733" y="-652.8" font-family="Times,serif" font-size="14.00">id :integer</text>
<text text-anchor="start" x="396.733" y="-637.8" font-family="Times,serif" font-size="14.00">role :boolean</text>
<text text-anchor="start" x="396.733" y="-622.8" font-family="Times,serif" font-size="14.00">username :string</text>
<text text-anchor="start" x="396.733" y="-607.8" font-family="Times,serif" font-size="14.00">created_at :datetime</text>
<text text-anchor="start" x="396.733" y="-592.8" font-family="Times,serif" font-size="14.00">updated_at :datetime</text>
<text text-anchor="start" x="396.733" y="-577.8" font-family="Times,serif" font-size="14.00">email :string</text>
<text text-anchor="start" x="396.733" y="-562.8" font-family="Times,serif" font-size="14.00">encrypted_password :string</text>
<text text-anchor="start" x="396.733" y="-547.8" font-family="Times,serif" font-size="14.00">reset_password_token :string</text>
<text text-anchor="start" x="396.733" y="-532.8" font-family="Times,serif" font-size="14.00">reset_password_sent_at :datetime</text>
<text text-anchor="start" x="396.733" y="-517.8" font-family="Times,serif" font-size="14.00">remember_created_at :datetime</text>
<text text-anchor="start" x="396.733" y="-502.8" font-family="Times,serif" font-size="14.00">sign_in_count :integer</text>
<text text-anchor="start" x="396.733" y="-487.8" font-family="Times,serif" font-size="14.00">current_sign_in_at :datetime</text>
<text text-anchor="start" x="396.733" y="-472.8" font-family="Times,serif" font-size="14.00">last_sign_in_at :datetime</text>
<text text-anchor="start" x="396.733" y="-457.8" font-family="Times,serif" font-size="14.00">current_sign_in_ip :string</text>
<text text-anchor="start" x="396.733" y="-442.8" font-family="Times,serif" font-size="14.00">last_sign_in_ip :string</text>
</g>
<!-- Student&#45;&gt;ScheduleStudent -->
<g id="edge10" class="edge"><title>Student&#45;&gt;ScheduleStudent</title>
<path fill="none" stroke="#42dfa0" d="M181.486,-64.6269C179.02,-57.9096 176.662,-51.4874 174.534,-45.6922"/>
<ellipse fill="none" stroke="#42dfa0" cx="182.878" cy="-68.4166" rx="4.00001" ry="4.00001"/>
<polygon fill="#42dfa0" stroke="#42dfa0" points="174.425,-45.397 175.203,-34.4587 172.702,-40.7034 170.978,-36.0098 170.978,-36.0098 170.978,-36.0098 172.702,-40.7034 166.754,-37.5609 174.425,-45.397 174.425,-45.397"/>
</g>
<!-- Assignature -->
<g id="node8" class="node"><title>Assignature</title>
<path fill="none" stroke="black" d="M619.233,-517.5C619.233,-517.5 726.233,-517.5 726.233,-517.5 732.233,-517.5 738.233,-523.5 738.233,-529.5 738.233,-529.5 738.233,-596.5 738.233,-596.5 738.233,-602.5 732.233,-608.5 726.233,-608.5 726.233,-608.5 619.233,-608.5 619.233,-608.5 613.233,-608.5 607.233,-602.5 607.233,-596.5 607.233,-596.5 607.233,-529.5 607.233,-529.5 607.233,-523.5 613.233,-517.5 619.233,-517.5"/>
<text text-anchor="middle" x="672.733" y="-593.3" font-family="Times,serif" font-size="14.00">Assignature</text>
<polyline fill="none" stroke="black" points="607.233,-585.5 738.233,-585.5 "/>
<text text-anchor="start" x="615.233" y="-570.3" font-family="Times,serif" font-size="14.00">id :integer</text>
<text text-anchor="start" x="615.233" y="-555.3" font-family="Times,serif" font-size="14.00">name :string</text>
<text text-anchor="start" x="615.233" y="-540.3" font-family="Times,serif" font-size="14.00">created_at :datetime</text>
<text text-anchor="start" x="615.233" y="-525.3" font-family="Times,serif" font-size="14.00">updated_at :datetime</text>
</g>
<!-- Assignature&#45;&gt;Meeting -->
<g id="edge12" class="edge"><title>Assignature&#45;&gt;Meeting</title>
<path fill="none" stroke="#dbe89a" d="M651.457,-509.782C638.923,-484.247 620.937,-454.647 597.733,-434 552.887,-394.097 490.306,-367.519 440.711,-351.225"/>
<ellipse fill="none" stroke="#dbe89a" cx="653.285" cy="-513.604" rx="4.00002" ry="4.00002"/>
<polygon fill="#dbe89a" stroke="#dbe89a" points="440.497,-351.156 432.349,-343.817 435.736,-349.629 430.975,-348.102 430.975,-348.102 430.975,-348.102 435.736,-349.629 429.6,-352.387 440.497,-351.156 440.497,-351.156"/>
</g>
<!-- ActiveRecord::Base -->
<g id="node10" class="node"><title>ActiveRecord::Base</title>
<ellipse fill="none" stroke="black" cx="360.733" cy="-767" rx="81.3646" ry="18"/>
<text text-anchor="middle" x="360.733" y="-763.3" font-family="Times,serif" font-size="14.00">ActiveRecord::Base</text>
</g>
<!-- ActiveRecord::Base&#45;&gt;Schedule -->
<g id="edge3" class="edge"><title>ActiveRecord::Base&#45;&gt;Schedule</title>
<path fill="none" stroke="black" d="M328.552,-750.351C311.436,-742.598 289.827,-733.701 269.733,-728 220.597,-714.061 75.8992,-730.841 42.7326,-692 -31.7287,-604.799 7.49152,-543.117 42.7326,-434 48.6847,-415.57 59.2533,-397.656 70.6132,-382.035"/>
</g>
<!-- ActiveRecord::Base&#45;&gt;Teacher -->
<g id="edge5" class="edge"><title>ActiveRecord::Base&#45;&gt;Teacher</title>
<path fill="none" stroke="black" d="M324.3,-750.729C276.228,-730.481 197.03,-696.737 191.733,-692 175.182,-677.199 161.368,-657.786 150.33,-638.568"/>
</g>
<!-- ActiveRecord::Base&#45;&gt;Location -->
<g id="edge7" class="edge"><title>ActiveRecord::Base&#45;&gt;Location</title>
<path fill="none" stroke="black" d="M352.718,-748.778C339.221,-719.773 311.439,-660.07 291.093,-616.348"/>
</g>
<!-- ActiveRecord::Base&#45;&gt;Meeting -->
<g id="edge8" class="edge"><title>ActiveRecord::Base&#45;&gt;Meeting</title>
<path fill="none" stroke="black" d="M360.733,-748.908C360.733,-690.97 360.733,-499.909 360.733,-397.021"/>
</g>
<!-- ActiveRecord::Base&#45;&gt;Administrator -->
<g id="edge9" class="edge"><title>ActiveRecord::Base&#45;&gt;Administrator</title>
<path fill="none" stroke="black" d="M371.426,-749.125C380.198,-735.281 393.506,-714.279 408.05,-691.327"/>
</g>
<!-- ActiveRecord::Base&#45;&gt;Student -->
<g id="edge11" class="edge"><title>ActiveRecord::Base&#45;&gt;Student</title>
<path fill="none" stroke="black" d="M439.484,-762.369C540.856,-755.854 708.533,-738.218 746.733,-692 819.783,-603.614 804.461,-533.075 746.733,-434 645.404,-260.098 396.884,-186.967 277.65,-161.099"/>
</g>
<!-- ActiveRecord::Base&#45;&gt;Assignature -->
<g id="edge13" class="edge"><title>ActiveRecord::Base&#45;&gt;Assignature</title>
<path fill="none" stroke="black" d="M430.83,-757.802C481.665,-748.825 549.652,-730.226 597.733,-692 624.849,-670.441 644.174,-636.204 656.411,-608.561"/>
</g>
</g>
</svg>
